<svg xmlns="http://www.w3.org/2000/svg" xmlns:xlink="http://www.w3.org/1999/xlink" width="500" zoomAndPan="magnify" viewBox="0 0 375 374.999991" height="500" preserveAspectRatio="xMidYMid meet" version="1.0"><defs><g/><clipPath id="9e60dccc6b"><path d="M 86.894531 121 L 188 121 L 188 210.0625 L 86.894531 210.0625 Z M 86.894531 121 " clip-rule="nonzero"/></clipPath><clipPath id="b1f429cc45"><path d="M 187 75.0625 L 287.894531 75.0625 L 287.894531 164 L 187 164 Z M 187 75.0625 " clip-rule="nonzero"/></clipPath></defs><g clip-path="url(#9e60dccc6b)"><path fill="#0284c7" d="M 154.644531 184.457031 L 154.644531 196.703125 L 99.179688 170.933594 L 99.179688 160.996094 L 154.644531 135.230469 L 154.644531 147.480469 L 112.699219 165.851562 L 112.699219 166.082031 Z M 187.585938 121.621094 L 94.832031 121.621094 C 90.453125 121.621094 86.902344 125.167969 86.902344 129.550781 L 86.902344 202.382812 C 86.902344 206.761719 90.453125 210.3125 94.832031 210.3125 L 161.835938 210.3125 L 187.585938 121.621094 " fill-opacity="1" fill-rule="nonzero"/></g><g clip-path="url(#b1f429cc45)"><path fill="#0a0a0a" d="M 275.839844 124.769531 L 220.375 150.191406 L 220.375 137.941406 L 263.242188 119.570312 L 263.242188 119.339844 L 220.375 100.964844 L 220.375 88.71875 L 275.839844 114.140625 Z M 213.335938 75.109375 L 187.585938 163.800781 L 280.1875 163.800781 C 284.566406 163.800781 288.117188 160.25 288.117188 155.871094 L 288.117188 83.039062 C 288.117188 78.660156 284.566406 75.109375 280.1875 75.109375 L 213.335938 75.109375 " fill-opacity="1" fill-rule="nonzero"/></g><g fill="#0a0a0a" fill-opacity="1"><g transform="translate(111.2677, 267.231881)"><g><path d="M 32.234375 -3.09375 C 30.671875 -1.851562 28.648438 -0.894531 26.171875 -0.21875 C 23.691406 0.457031 20.640625 0.796875 17.015625 0.796875 C 13.398438 0.796875 9.550781 0.46875 5.46875 -0.1875 L 5.46875 -42.15625 C 9.59375 -42.8125 13.164062 -43.140625 16.1875 -43.140625 C 19.207031 -43.140625 21.6875 -42.851562 23.625 -42.28125 C 25.570312 -41.707031 27.164062 -40.929688 28.40625 -39.953125 C 30.820312 -38.066406 32.03125 -35.617188 32.03125 -32.609375 C 32.03125 -29.609375 30.9375 -27.125 28.75 -25.15625 C 31.34375 -24.34375 33.347656 -22.8125 34.765625 -20.5625 C 36.054688 -18.550781 36.703125 -16.316406 36.703125 -13.859375 C 36.703125 -11.410156 36.347656 -9.316406 35.640625 -7.578125 C 34.929688 -5.835938 33.796875 -4.34375 32.234375 -3.09375 Z M 13.90625 -26.328125 C 14.800781 -26.179688 15.914062 -26.109375 17.25 -26.109375 C 18.59375 -26.109375 19.691406 -26.28125 20.546875 -26.625 C 21.410156 -26.976562 22.078125 -27.421875 22.546875 -27.953125 C 23.304688 -28.828125 23.6875 -30.035156 23.6875 -31.578125 C 23.6875 -34.828125 21.773438 -36.453125 17.953125 -36.453125 C 16.335938 -36.453125 14.988281 -36.390625 13.90625 -36.265625 Z M 18.625 -19.515625 C 16.84375 -19.515625 15.269531 -19.398438 13.90625 -19.171875 L 13.90625 -6.65625 C 15.394531 -6.269531 16.957031 -6.078125 18.59375 -6.078125 C 20.226562 -6.078125 21.664062 -6.273438 22.90625 -6.671875 C 24.144531 -7.066406 25.191406 -7.601562 26.046875 -8.28125 C 27.765625 -9.675781 28.625 -11.457031 28.625 -13.625 C 28.625 -17.550781 25.289062 -19.515625 18.625 -19.515625 Z M 18.625 -19.515625 "/></g></g></g><g fill="#0a0a0a" fill-opacity="1"><g transform="translate(149.376578, 267.231881)"><g><path d="M 29.609375 -42.5 C 30.921875 -42.394531 32.015625 -42.34375 32.890625 -42.34375 L 35.53125 -42.34375 C 36.425781 -42.34375 37.359375 -42.425781 38.328125 -42.59375 L 38.328125 -16.265625 C 38.328125 -11.046875 36.75 -6.851562 33.59375 -3.6875 C 30.59375 -0.695312 26.832031 0.796875 22.3125 0.796875 C 17.375 0.796875 13.375 -0.488281 10.3125 -3.0625 C 6.894531 -5.945312 5.1875 -10.101562 5.1875 -15.53125 L 5.1875 -42.5 C 6.945312 -42.394531 8.609375 -42.34375 10.171875 -42.34375 C 11.734375 -42.34375 13.023438 -42.425781 14.046875 -42.59375 L 14.046875 -15.125 C 14.046875 -12.445312 14.859375 -10.363281 16.484375 -8.875 C 18.015625 -7.519531 19.925781 -6.84375 22.21875 -6.84375 C 25.613281 -6.84375 27.875 -8.582031 29 -12.0625 C 29.40625 -13.3125 29.609375 -14.863281 29.609375 -16.71875 Z M 29.609375 -42.5 "/></g></g></g><g fill="#0a0a0a" fill-opacity="1"><g transform="translate(192.929567, 267.231881)"><g><path d="M 20.765625 0.1875 C 19.742188 0.0625 17.117188 0 12.890625 0 L 11.875 0 L 11.875 -35.21875 L 5.578125 -35.21875 C 3.703125 -35.21875 2.59375 -35.117188 2.25 -34.921875 C 1.914062 -34.734375 1.65625 -34.566406 1.46875 -34.421875 L 1.375 -34.453125 L 1.375 -42.59375 L 1.46875 -42.6875 C 2.164062 -42.457031 4.050781 -42.34375 7.125 -42.34375 L 27.09375 -42.34375 C 28.957031 -42.34375 30.0625 -42.4375 30.40625 -42.625 C 30.75 -42.820312 31.015625 -42.992188 31.203125 -43.140625 L 31.296875 -43.109375 L 31.296875 -34.953125 L 31.203125 -34.859375 C 30.503906 -35.097656 28.613281 -35.21875 25.53125 -35.21875 L 20.765625 -35.21875 Z M 20.765625 0.1875 "/></g></g></g><g fill="#0a0a0a" fill-opacity="1"><g transform="translate(225.59431, 267.231881)"><g><path d="M 8.5625 0.25 C 6.738281 0.0820312 4.609375 0 2.171875 0 L -0.34375 0 L 13.5 -38.8125 C 14.113281 -40.550781 14.421875 -41.5625 14.421875 -41.84375 C 14.421875 -42.132812 14.410156 -42.3125 14.390625 -42.375 L 14.421875 -42.4375 C 15.796875 -42.375 17.257812 -42.34375 18.8125 -42.34375 C 20.082031 -42.34375 21.613281 -42.363281 23.40625 -42.40625 L 23.4375 -42.34375 C 23.394531 -42.257812 23.375 -42.144531 23.375 -42 C 23.375 -41.59375 23.691406 -40.519531 24.328125 -38.78125 L 38.453125 0.09375 C 38.035156 0.0703125 37.539062 0.0625 36.96875 0.0625 C 36.96875 0.0625 36.414062 0.0390625 35.3125 0 C 34.78125 0 34.300781 0 33.875 0 L 28.9375 0 L 25.953125 -9.171875 L 11.5625 -9.171875 Z M 23.46875 -16.8125 L 18.65625 -31.609375 L 13.984375 -16.8125 Z M 23.46875 -16.8125 "/></g></g></g><g fill="#0a0a0a" fill-opacity="1"><g transform="translate(138.114647, 293.770774)"><g><path d="M 8.96875 -11.546875 L 8.78125 -8.84375 L 8.71875 -8.828125 C 8.269531 -9.503906 7.5 -9.945312 6.40625 -10.15625 C 6.0625 -10.21875 5.734375 -10.25 5.421875 -10.25 C 5.109375 -10.25 4.835938 -10.21875 4.609375 -10.15625 C 4.390625 -10.101562 4.195312 -10.023438 4.03125 -9.921875 C 3.695312 -9.703125 3.53125 -9.414062 3.53125 -9.0625 C 3.53125 -8.59375 3.675781 -8.242188 3.96875 -8.015625 C 4.332031 -7.734375 4.941406 -7.535156 5.796875 -7.421875 C 6.648438 -7.304688 7.332031 -7.148438 7.84375 -6.953125 C 8.363281 -6.765625 8.789062 -6.519531 9.125 -6.21875 C 9.75 -5.65625 10.0625 -4.859375 10.0625 -3.828125 C 10.0625 -2.472656 9.550781 -1.429688 8.53125 -0.703125 C 7.65625 -0.078125 6.554688 0.234375 5.234375 0.234375 C 4.171875 0.234375 3.117188 0.03125 2.078125 -0.375 C 1.734375 -0.507812 1.429688 -0.664062 1.171875 -0.84375 L 1.28125 -3.921875 L 1.3125 -3.9375 C 2.070312 -2.632812 3.320312 -1.984375 5.0625 -1.984375 C 6.289062 -1.984375 7.101562 -2.28125 7.5 -2.875 C 7.632812 -3.070312 7.703125 -3.296875 7.703125 -3.546875 C 7.703125 -3.796875 7.660156 -4 7.578125 -4.15625 C 7.503906 -4.320312 7.375 -4.460938 7.1875 -4.578125 C 6.832031 -4.804688 6.234375 -4.960938 5.390625 -5.046875 C 4.554688 -5.128906 3.867188 -5.28125 3.328125 -5.5 C 2.796875 -5.71875 2.375 -5.988281 2.0625 -6.3125 C 1.476562 -6.90625 1.1875 -7.726562 1.1875 -8.78125 C 1.1875 -9.875 1.570312 -10.753906 2.34375 -11.421875 C 3.125 -12.109375 4.171875 -12.453125 5.484375 -12.453125 C 6.804688 -12.453125 7.96875 -12.148438 8.96875 -11.546875 Z M 8.96875 -11.546875 "/></g></g></g><g fill="#0a0a0a" fill-opacity="1"><g transform="translate(149.075722, 293.770774)"><g><path d="M 2.578125 -1.453125 C 2.023438 -1.984375 1.585938 -2.625 1.265625 -3.375 C 0.941406 -4.125 0.78125 -4.941406 0.78125 -5.828125 C 0.78125 -6.722656 0.929688 -7.566406 1.234375 -8.359375 C 1.535156 -9.160156 1.960938 -9.863281 2.515625 -10.46875 C 3.078125 -11.070312 3.753906 -11.550781 4.546875 -11.90625 C 5.335938 -12.269531 6.222656 -12.453125 7.203125 -12.453125 C 8.890625 -12.453125 10.3125 -11.921875 11.46875 -10.859375 C 12.707031 -9.710938 13.328125 -8.175781 13.328125 -6.25 C 13.328125 -4.363281 12.691406 -2.800781 11.421875 -1.5625 C 10.628906 -0.789062 9.691406 -0.265625 8.609375 0.015625 C 8.078125 0.160156 7.453125 0.234375 6.734375 0.234375 C 6.023438 0.234375 5.296875 0.0859375 4.546875 -0.203125 C 3.796875 -0.503906 3.140625 -0.921875 2.578125 -1.453125 Z M 3.34375 -5.953125 C 3.34375 -5.390625 3.4375 -4.867188 3.625 -4.390625 C 3.8125 -3.910156 4.070312 -3.5 4.40625 -3.15625 C 5.125 -2.425781 6.050781 -2.0625 7.1875 -2.0625 C 8.25 -2.0625 9.109375 -2.410156 9.765625 -3.109375 C 10.421875 -3.828125 10.75 -4.804688 10.75 -6.046875 C 10.75 -7.203125 10.4375 -8.171875 9.8125 -8.953125 C 9.125 -9.785156 8.191406 -10.203125 7.015625 -10.203125 C 5.867188 -10.203125 4.957031 -9.78125 4.28125 -8.9375 C 3.65625 -8.144531 3.34375 -7.148438 3.34375 -5.953125 Z M 3.34375 -5.953125 "/></g></g></g><g fill="#0a0a0a" fill-opacity="1"><g transform="translate(163.179031, 293.770774)"><g><path d="M 3.375 0 C 2.46875 0 1.867188 0.0195312 1.578125 0.0625 L 1.578125 -12.28125 C 1.722656 -12.25 2.023438 -12.234375 2.484375 -12.234375 C 2.953125 -12.234375 3.492188 -12.242188 4.109375 -12.265625 L 4.109375 -2.203125 L 6.015625 -2.203125 C 6.566406 -2.203125 7.007812 -2.222656 7.34375 -2.265625 C 7.289062 -0.828125 7.265625 -0.0820312 7.265625 -0.03125 L 7.265625 0.0625 C 6.671875 0.0195312 5.664062 0 4.25 0 Z M 3.375 0 "/></g></g></g><g fill="#0a0a0a" fill-opacity="1"><g transform="translate(171.034624, 293.770774)"><g><path d="M 8.546875 -12.265625 C 8.929688 -12.242188 9.25 -12.234375 9.5 -12.234375 L 10.265625 -12.234375 C 10.515625 -12.234375 10.78125 -12.253906 11.0625 -12.296875 L 11.0625 -4.703125 C 11.0625 -3.191406 10.609375 -1.976562 9.703125 -1.0625 C 8.835938 -0.195312 7.75 0.234375 6.4375 0.234375 C 5.007812 0.234375 3.859375 -0.132812 2.984375 -0.875 C 1.992188 -1.71875 1.5 -2.921875 1.5 -4.484375 L 1.5 -12.265625 C 2.007812 -12.242188 2.488281 -12.234375 2.9375 -12.234375 C 3.382812 -12.234375 3.753906 -12.253906 4.046875 -12.296875 L 4.046875 -4.359375 C 4.046875 -3.585938 4.285156 -2.988281 4.765625 -2.5625 C 5.203125 -2.175781 5.753906 -1.984375 6.421875 -1.984375 C 7.398438 -1.984375 8.050781 -2.484375 8.375 -3.484375 C 8.488281 -3.847656 8.546875 -4.296875 8.546875 -4.828125 Z M 8.546875 -12.265625 "/></g></g></g><g fill="#0a0a0a" fill-opacity="1"><g transform="translate(183.603559, 293.770774)"><g><path d="M 6 0.0625 C 5.695312 0.0195312 4.9375 0 3.71875 0 L 3.421875 0 L 3.421875 -10.171875 L 1.609375 -10.171875 C 1.066406 -10.171875 0.742188 -10.140625 0.640625 -10.078125 C 0.546875 -10.023438 0.472656 -9.976562 0.421875 -9.9375 L 0.390625 -9.953125 L 0.390625 -12.296875 L 0.421875 -12.328125 C 0.617188 -12.265625 1.164062 -12.234375 2.0625 -12.234375 L 7.828125 -12.234375 C 8.359375 -12.234375 8.671875 -12.257812 8.765625 -12.3125 C 8.867188 -12.363281 8.953125 -12.410156 9.015625 -12.453125 L 9.03125 -12.453125 L 9.03125 -10.09375 L 9.015625 -10.0625 C 8.804688 -10.132812 8.257812 -10.171875 7.375 -10.171875 L 6 -10.171875 Z M 6 0.0625 "/></g></g></g><g fill="#0a0a0a" fill-opacity="1"><g transform="translate(193.030261, 293.770774)"><g><path d="M 1.859375 -12.265625 C 2.472656 -12.242188 2.847656 -12.234375 2.984375 -12.234375 L 3.640625 -12.234375 C 3.960938 -12.234375 4.222656 -12.253906 4.421875 -12.296875 L 4.40625 0 L 1.859375 0 Z M 1.859375 -12.265625 "/></g></g></g><g fill="#0a0a0a" fill-opacity="1"><g transform="translate(199.314728, 293.770774)"><g><path d="M 2.578125 -1.453125 C 2.023438 -1.984375 1.585938 -2.625 1.265625 -3.375 C 0.941406 -4.125 0.78125 -4.941406 0.78125 -5.828125 C 0.78125 -6.722656 0.929688 -7.566406 1.234375 -8.359375 C 1.535156 -9.160156 1.960938 -9.863281 2.515625 -10.46875 C 3.078125 -11.070312 3.753906 -11.550781 4.546875 -11.90625 C 5.335938 -12.269531 6.222656 -12.453125 7.203125 -12.453125 C 8.890625 -12.453125 10.3125 -11.921875 11.46875 -10.859375 C 12.707031 -9.710938 13.328125 -8.175781 13.328125 -6.25 C 13.328125 -4.363281 12.691406 -2.800781 11.421875 -1.5625 C 10.628906 -0.789062 9.691406 -0.265625 8.609375 0.015625 C 8.078125 0.160156 7.453125 0.234375 6.734375 0.234375 C 6.023438 0.234375 5.296875 0.0859375 4.546875 -0.203125 C 3.796875 -0.503906 3.140625 -0.921875 2.578125 -1.453125 Z M 3.34375 -5.953125 C 3.34375 -5.390625 3.4375 -4.867188 3.625 -4.390625 C 3.8125 -3.910156 4.070312 -3.5 4.40625 -3.15625 C 5.125 -2.425781 6.050781 -2.0625 7.1875 -2.0625 C 8.25 -2.0625 9.109375 -2.410156 9.765625 -3.109375 C 10.421875 -3.828125 10.75 -4.804688 10.75 -6.046875 C 10.75 -7.203125 10.4375 -8.171875 9.8125 -8.953125 C 9.125 -9.785156 8.191406 -10.203125 7.015625 -10.203125 C 5.867188 -10.203125 4.957031 -9.78125 4.28125 -8.9375 C 3.65625 -8.144531 3.34375 -7.148438 3.34375 -5.953125 Z M 3.34375 -5.953125 "/></g></g></g><g fill="#0a0a0a" fill-opacity="1"><g transform="translate(213.418037, 293.770774)"><g><path d="M 1.65625 0 C 1.695312 -0.207031 1.71875 -0.4375 1.71875 -0.6875 L 1.71875 -12.234375 L 3.5625 -12.234375 L 8.4375 -4.5625 L 8.4375 -11.609375 C 8.4375 -11.941406 8.40625 -12.148438 8.34375 -12.234375 L 10.828125 -12.234375 C 10.796875 -11.984375 10.78125 -11.710938 10.78125 -11.421875 L 10.78125 0 L 8.859375 0 L 4.0625 -7.359375 L 4.0625 0 Z M 1.65625 0 "/></g></g></g><g fill="#0a0a0a" fill-opacity="1"><g transform="translate(225.90429, 293.770774)"><g><path d="M 8.96875 -11.546875 L 8.78125 -8.84375 L 8.71875 -8.828125 C 8.269531 -9.503906 7.5 -9.945312 6.40625 -10.15625 C 6.0625 -10.21875 5.734375 -10.25 5.421875 -10.25 C 5.109375 -10.25 4.835938 -10.21875 4.609375 -10.15625 C 4.390625 -10.101562 4.195312 -10.023438 4.03125 -9.921875 C 3.695312 -9.703125 3.53125 -9.414062 3.53125 -9.0625 C 3.53125 -8.59375 3.675781 -8.242188 3.96875 -8.015625 C 4.332031 -7.734375 4.941406 -7.535156 5.796875 -7.421875 C 6.648438 -7.304688 7.332031 -7.148438 7.84375 -6.953125 C 8.363281 -6.765625 8.789062 -6.519531 9.125 -6.21875 C 9.75 -5.65625 10.0625 -4.859375 10.0625 -3.828125 C 10.0625 -2.472656 9.550781 -1.429688 8.53125 -0.703125 C 7.65625 -0.078125 6.554688 0.234375 5.234375 0.234375 C 4.171875 0.234375 3.117188 0.03125 2.078125 -0.375 C 1.734375 -0.507812 1.429688 -0.664062 1.171875 -0.84375 L 1.28125 -3.921875 L 1.3125 -3.9375 C 2.070312 -2.632812 3.320312 -1.984375 5.0625 -1.984375 C 6.289062 -1.984375 7.101562 -2.28125 7.5 -2.875 C 7.632812 -3.070312 7.703125 -3.296875 7.703125 -3.546875 C 7.703125 -3.796875 7.660156 -4 7.578125 -4.15625 C 7.503906 -4.320312 7.375 -4.460938 7.1875 -4.578125 C 6.832031 -4.804688 6.234375 -4.960938 5.390625 -5.046875 C 4.554688 -5.128906 3.867188 -5.28125 3.328125 -5.5 C 2.796875 -5.71875 2.375 -5.988281 2.0625 -6.3125 C 1.476562 -6.90625 1.1875 -7.726562 1.1875 -8.78125 C 1.1875 -9.875 1.570312 -10.753906 2.34375 -11.421875 C 3.125 -12.109375 4.171875 -12.453125 5.484375 -12.453125 C 6.804688 -12.453125 7.96875 -12.148438 8.96875 -11.546875 Z M 8.96875 -11.546875 "/></g></g></g></svg>