<?xml version="1.0" encoding="UTF-8"?>
<svg xmlns="http://www.w3.org/2000/svg" xmlns:xlink="http://www.w3.org/1999/xlink" width="400px" height="141px" viewBox="0 0 399 141" version="1.1">
<g id="surface1">
<path style=" stroke:none;fill-rule:nonzero;fill:rgb(13.333333%,15.294118%,19.607843%);fill-opacity:1;" d="M 171.128906 59.734375 L 191.335938 9.203125 L 207.003906 9.203125 L 227.046875 59.734375 L 214.425781 59.734375 L 209.5625 47.328125 L 188.285156 47.328125 L 183.5 59.734375 Z M 192.488281 36.566406 L 205.601562 36.566406 L 198.839844 20.542969 Z M 192.488281 36.566406 "/>
<path style=" stroke:none;fill-rule:nonzero;fill:rgb(13.333333%,15.294118%,19.607843%);fill-opacity:1;" d="M 234.796875 35.414062 L 234.796875 9.203125 L 246.507812 9.203125 L 246.507812 35.414062 C 246.507812 37.796875 247.003906 40.097656 247.910156 42.234375 C 248.816406 44.371094 250.222656 46.097656 252.035156 47.410156 C 253.851562 48.726562 255.992188 49.382812 258.550781 49.382812 C 261.105469 49.382812 263.25 48.726562 265.066406 47.410156 C 266.878906 46.097656 268.199219 44.371094 269.1875 42.234375 C 270.097656 40.097656 270.589844 37.878906 270.589844 35.496094 L 270.589844 9.203125 L 282.300781 9.203125 L 282.300781 35.414062 C 282.300781 39.6875 281.394531 43.714844 279.5 47.574219 C 277.683594 51.4375 274.960938 54.640625 271.335938 57.023438 C 267.785156 59.488281 263.496094 60.640625 258.550781 60.640625 C 253.601562 60.640625 249.3125 59.40625 245.765625 57.023438 C 242.222656 54.640625 239.496094 51.4375 237.601562 47.574219 C 235.707031 43.796875 234.796875 39.6875 234.796875 35.414062 Z M 234.796875 35.414062 "/>
<path style=" stroke:none;fill-rule:nonzero;fill:rgb(13.333333%,15.294118%,19.607843%);fill-opacity:1;" d="M 311.828125 19.96875 L 293.023438 19.96875 L 293.023438 9.203125 L 342.257812 9.203125 L 342.257812 19.96875 L 323.457031 19.96875 L 323.457031 59.734375 L 311.746094 59.734375 L 311.746094 19.96875 Z M 311.828125 19.96875 "/>
<path style=" stroke:none;fill-rule:nonzero;fill:rgb(13.333333%,15.294118%,19.607843%);fill-opacity:1;" d="M 347.867188 34.429688 C 347.867188 29.828125 348.855469 25.554688 350.917969 21.609375 C 352.980469 17.582031 355.949219 14.378906 359.828125 11.914062 C 363.703125 9.449219 368.238281 8.214844 373.433594 8.214844 C 378.628906 8.214844 383.164062 9.449219 387.042969 11.914062 C 390.917969 14.378906 393.886719 17.582031 395.949219 21.609375 C 398.011719 25.636719 399 29.910156 399 34.429688 C 399 39.03125 398.011719 43.300781 395.949219 47.328125 C 393.886719 51.355469 390.917969 54.558594 387.042969 57.023438 C 383.164062 59.488281 378.628906 60.722656 373.433594 60.722656 C 368.238281 60.722656 363.703125 59.488281 359.828125 57.023438 C 355.949219 54.558594 352.980469 51.355469 350.917969 47.328125 C 348.855469 43.300781 347.867188 39.03125 347.867188 34.429688 Z M 386.878906 34.429688 C 386.878906 31.882812 386.382812 29.417969 385.308594 27.117188 C 384.238281 24.816406 382.667969 22.925781 380.691406 21.527344 C 378.628906 20.132812 376.238281 19.390625 373.433594 19.390625 C 370.628906 19.390625 368.238281 20.132812 366.175781 21.527344 C 364.113281 22.925781 362.628906 24.816406 361.558594 27.117188 C 360.566406 29.417969 359.992188 31.882812 359.992188 34.429688 C 359.992188 37.058594 360.484375 39.523438 361.558594 41.742188 C 362.628906 44.042969 364.113281 45.851562 366.175781 47.246094 C 368.15625 48.644531 370.546875 49.300781 373.351562 49.300781 C 376.152344 49.300781 378.546875 48.644531 380.609375 47.246094 C 382.667969 45.851562 384.15625 44.042969 385.226562 41.742188 C 386.300781 39.523438 386.878906 37.058594 386.878906 34.429688 Z M 386.878906 34.429688 "/>
<path style=" stroke:none;fill-rule:nonzero;fill:rgb(96.862745%,58.823529%,39.607843%);fill-opacity:1;" d="M 199.417969 101.230469 L 213.4375 80.933594 L 223.746094 80.933594 L 223.746094 131.46875 L 212.117188 131.46875 L 212.117188 101.3125 L 204.449219 112.078125 L 193.808594 112.078125 L 186.222656 101.3125 L 186.222656 131.46875 L 174.511719 131.46875 L 174.511719 80.933594 L 184.738281 80.933594 Z M 199.417969 101.230469 "/>
<path style=" stroke:none;fill-rule:nonzero;fill:rgb(96.862745%,58.823529%,39.607843%);fill-opacity:1;" d="M 252.613281 80.933594 L 264.320312 80.933594 L 264.320312 131.46875 L 252.613281 131.46875 Z M 252.613281 80.933594 "/>
<path style=" stroke:none;fill-rule:nonzero;fill:rgb(96.862745%,58.823529%,39.607843%);fill-opacity:1;" d="M 292.199219 106.160156 C 292.199219 101.558594 293.1875 97.285156 295.25 93.34375 C 297.3125 89.316406 300.28125 86.113281 304.15625 83.648438 C 308.03125 81.183594 312.570312 79.949219 317.765625 79.949219 C 322.960938 79.949219 327.496094 81.183594 331.375 83.648438 C 335.25 86.113281 338.21875 89.316406 340.28125 93.34375 C 342.34375 97.367188 343.332031 101.640625 343.332031 106.160156 C 343.332031 110.761719 342.34375 115.035156 340.28125 119.0625 C 338.21875 123.085938 335.25 126.292969 331.375 128.757812 C 327.496094 131.222656 322.960938 132.453125 317.765625 132.453125 C 312.570312 132.453125 308.03125 131.222656 304.15625 128.757812 C 300.28125 126.292969 297.3125 123.085938 295.25 119.0625 C 293.1875 115.035156 292.199219 110.761719 292.199219 106.160156 Z M 331.125 106.160156 C 331.125 103.613281 330.628906 101.148438 329.558594 98.847656 C 328.488281 96.546875 326.917969 94.65625 324.9375 93.261719 C 322.878906 91.863281 320.484375 91.125 317.683594 91.125 C 314.878906 91.125 312.484375 91.863281 310.425781 93.261719 C 308.363281 94.65625 306.878906 96.546875 305.804688 98.847656 C 304.816406 101.148438 304.238281 103.613281 304.238281 106.160156 C 304.238281 108.789062 304.734375 111.253906 305.804688 113.472656 C 306.878906 115.773438 308.363281 117.582031 310.425781 118.980469 C 312.40625 120.375 314.796875 121.035156 317.597656 121.035156 C 320.402344 121.035156 322.796875 120.375 324.859375 118.980469 C 326.917969 117.582031 328.402344 115.773438 329.476562 113.472656 C 330.628906 111.253906 331.125 108.789062 331.125 106.160156 Z M 331.125 106.160156 "/>
<path style=" stroke:none;fill-rule:nonzero;fill:rgb(96.862745%,58.823529%,39.607843%);fill-opacity:1;" d="M 40.660156 76.910156 L 48.742188 76.910156 L 48.742188 111.832031 L 40.660156 111.832031 Z M 40.660156 76.910156 "/>
<path style=" stroke:none;fill-rule:nonzero;fill:rgb(13.333333%,15.294118%,19.607843%);fill-opacity:1;" d="M 25.484375 63.597656 L 39.421875 28.675781 L 50.226562 28.675781 L 64.082031 63.597656 L 55.339844 63.597656 L 51.957031 54.96875 L 37.359375 54.96875 L 34.0625 63.515625 L 25.484375 63.515625 Z M 40.164062 47.574219 L 49.234375 47.574219 L 44.617188 36.484375 Z M 40.164062 47.574219 "/>
<path style=" stroke:none;fill-rule:nonzero;fill:rgb(96.862745%,58.823529%,39.607843%);fill-opacity:1;" d="M 94.347656 42.726562 L 104.078125 28.675781 L 111.171875 28.675781 L 111.171875 63.597656 L 103.089844 63.597656 L 103.089844 42.726562 L 97.8125 50.121094 L 90.472656 50.121094 L 85.277344 42.726562 L 85.277344 63.515625 L 77.195312 63.515625 L 77.195312 28.675781 L 84.203125 28.675781 Z M 94.347656 42.726562 "/>
<path style=" stroke:none;fill-rule:nonzero;fill:rgb(96.862745%,58.823529%,39.607843%);fill-opacity:1;" d="M 76.617188 94.328125 C 76.617188 91.207031 77.277344 88.25 78.679688 85.535156 C 80.082031 82.824219 82.058594 80.605469 84.78125 78.882812 C 87.421875 77.15625 90.554688 76.332031 94.101562 76.332031 C 97.648438 76.332031 100.78125 77.15625 103.417969 78.882812 C 106.058594 80.605469 108.121094 82.742188 109.523438 85.535156 C 110.925781 88.25 111.585938 91.207031 111.585938 94.328125 C 111.585938 97.449219 110.925781 100.410156 109.523438 103.121094 C 108.121094 105.914062 106.140625 108.132812 103.417969 109.777344 C 100.78125 111.5 97.648438 112.324219 94.101562 112.324219 C 90.554688 112.324219 87.421875 111.5 84.78125 109.777344 C 82.140625 108.050781 80.082031 105.832031 78.679688 103.121094 C 77.359375 100.410156 76.617188 97.449219 76.617188 94.328125 Z M 103.335938 94.328125 C 103.335938 92.601562 103.007812 90.878906 102.265625 89.316406 C 101.523438 87.753906 100.449219 86.441406 99.132812 85.453125 C 97.730469 84.46875 96.078125 83.976562 94.183594 83.976562 C 92.285156 83.976562 90.636719 84.46875 89.234375 85.453125 C 87.832031 86.441406 86.761719 87.671875 86.101562 89.316406 C 85.359375 90.878906 85.027344 92.601562 85.027344 94.328125 C 85.027344 96.136719 85.359375 97.78125 86.101562 99.339844 C 86.84375 100.902344 87.832031 102.132812 89.234375 103.121094 C 90.636719 104.105469 92.285156 104.515625 94.183594 104.515625 C 96.078125 104.515625 97.730469 104.023438 99.132812 103.121094 C 100.535156 102.132812 101.605469 100.902344 102.265625 99.339844 C 103.007812 97.78125 103.335938 96.136719 103.335938 94.328125 Z M 103.335938 94.328125 "/>
<path style=" stroke:none;fill-rule:nonzero;fill:rgb(96.862745%,58.823529%,39.607843%);fill-opacity:1;" d="M 132.945312 8.214844 L 132.945312 132.785156 L 8.246094 132.785156 L 8.246094 8.214844 Z M 141.191406 0 L 0 0 L 0 141 L 141.191406 141 Z M 141.191406 0 "/>
</g>
</svg>
